<svg width="27" height="24" viewBox="0 0 27 24" fill="none" xmlns="http://www.w3.org/2000/svg">
<path d="M13.5004 3.27295C10.8341 3.27295 10.4995 3.28331 9.45225 3.32568C8.40701 3.36822 7.69359 3.51531 7.06933 3.73113C6.42364 3.95404 5.87587 4.25222 5.33014 4.73749C4.78402 5.22256 4.44858 5.70951 4.197 6.28331C3.9536 6.83841 3.78792 7.47276 3.74088 8.40152C3.69403 9.33242 3.68176 9.63006 3.68176 12.0002C3.68176 14.3704 3.69363 14.667 3.74108 15.5979C3.78914 16.527 3.95461 17.1611 4.1972 17.7161C4.44817 18.2901 4.78362 18.777 5.32953 19.2621C5.87503 19.7475 6.42279 20.0464 7.06809 20.2693C7.6928 20.4851 8.40639 20.6322 9.4514 20.6748C10.4987 20.7171 10.8331 20.7275 13.4992 20.7275C16.1658 20.7275 16.4994 20.7171 17.5467 20.6748C18.5919 20.6322 19.3061 20.4851 19.9308 20.2693C20.5763 20.0464 21.1232 19.7475 21.6687 19.2621C22.2149 18.777 22.5503 18.2901 22.8019 17.7162C23.0433 17.1611 23.2089 16.5268 23.258 15.5981C23.305 14.6671 23.3173 14.3704 23.3173 12.0002C23.3173 9.63006 23.305 9.33256 23.258 8.40166C23.2089 7.47256 23.0433 6.83841 22.8019 6.28351C22.5503 5.70951 22.2149 5.22256 21.6687 4.73749C21.1226 4.25204 20.5765 3.95386 19.9302 3.73113C19.3043 3.51531 18.5904 3.36822 17.5452 3.32568C16.498 3.28331 16.1646 3.27295 13.4974 3.27295H13.5004ZM12.6197 4.84568C12.8811 4.84531 13.1728 4.84568 13.5004 4.84568C16.1218 4.84568 16.4325 4.85404 17.4677 4.89586C18.425 4.93477 18.9445 5.07696 19.2905 5.19641C19.7488 5.35456 20.0754 5.54366 20.4188 5.84911C20.7624 6.15456 20.9752 6.44551 21.1535 6.85276C21.2879 7.16006 21.4481 7.62186 21.4916 8.47276C21.5386 9.39277 21.5489 9.66912 21.5489 11.9982C21.5489 14.3273 21.5386 14.6037 21.4916 15.5237C21.4478 16.3746 21.2879 16.8364 21.1535 17.1437C20.9756 17.551 20.7624 17.841 20.4188 18.1462C20.0752 18.4517 19.7489 18.6408 19.2905 18.799C18.9449 18.919 18.425 19.0608 17.4677 19.0997C16.4328 19.1415 16.1218 19.1506 13.5004 19.1506C10.8789 19.1506 10.5682 19.1415 9.53325 19.0997C8.57599 19.0604 8.05646 18.9182 7.71019 18.7988C7.25197 18.6406 6.92471 18.4515 6.58108 18.1461C6.2375 17.8406 6.02477 17.5504 5.8464 17.143C5.71202 16.8357 5.55186 16.3739 5.5083 15.523C5.46125 14.603 5.45184 14.3266 5.45184 11.9961C5.45184 9.66551 5.46125 9.39056 5.5083 8.47056C5.55207 7.61966 5.71202 7.15786 5.8464 6.85021C6.02437 6.44296 6.2375 6.15206 6.58108 5.84656C6.92471 5.54111 7.25197 5.35206 7.71019 5.19351C8.05623 5.07351 8.57599 4.93168 9.53325 4.89258C10.4389 4.85622 10.7899 4.84531 12.6197 4.84349V4.84568ZM18.7411 6.29476C18.0907 6.29476 17.563 6.76331 17.563 7.34166C17.563 7.91986 18.0907 8.38896 18.7411 8.38896C19.3916 8.38896 19.9193 7.91986 19.9193 7.34166C19.9193 6.76351 19.3916 6.29441 18.7411 6.29441V6.29476ZM13.5004 7.51841C10.7161 7.51841 8.45859 9.52511 8.45859 12.0002C8.45859 14.4753 10.7161 16.4811 13.5004 16.4811C16.2849 16.4811 18.5415 14.4753 18.5415 12.0002C18.5415 9.52511 16.2847 7.51841 13.5003 7.51841H13.5004ZM13.5004 9.09111C15.3078 9.09111 16.7731 10.3935 16.7731 12.0002C16.7731 13.6068 15.3078 14.9093 13.5004 14.9093C11.693 14.9093 10.2278 13.6068 10.2278 12.0002C10.2278 10.3935 11.693 9.09111 13.5004 9.09111Z" fill="black"/>
</svg>
