<svg width="175" height="60" viewBox="0 0 175 60" fill="none" xmlns="http://www.w3.org/2000/svg">
<path d="M94.4648 49.9467C92.4908 48.248 90.5855 46.4346 88.7492 44.5065C86.9587 42.5324 85.2831 40.5124 83.7222 38.4465C82.2072 36.3806 80.807 34.2918 79.5215 32.1799C78.282 30.0222 77.2261 27.9104 76.3538 25.8445C74.7929 27.5432 73.232 29.2647 71.6711 31.0093C70.1561 32.7079 68.8018 34.4295 67.6082 36.174C66.4145 37.8726 65.4504 39.5942 64.7159 41.3388C63.9355 43.0374 63.5452 44.736 63.5452 46.4346C63.5452 48.4546 63.8895 50.1992 64.5782 51.6683C65.2209 53.0914 66.0932 54.2621 67.195 55.1803C68.2968 56.0985 69.5593 56.7641 70.9825 57.1773C72.4056 57.5905 73.8747 57.7971 75.3897 57.7971C78.4197 57.7971 81.6333 57.0855 85.0306 55.6623C88.4278 54.2391 91.5726 52.3339 94.4648 49.9467ZM85.9258 9.11075C85.9258 7.50394 85.5585 6.35622 84.824 5.66758C84.1353 4.93304 83.3779 4.56577 82.5515 4.56577C81.8629 4.56577 81.1283 4.79532 80.3479 5.25441C79.6133 5.71349 78.9247 6.37917 78.282 7.25144C77.6852 8.0778 77.1802 9.08779 76.767 10.2814C76.3538 11.4751 76.1472 12.7835 76.1472 14.2066C76.1472 16.8234 76.6293 19.6009 77.5933 22.5391C78.7411 21.3455 79.8199 20.1748 80.8299 19.0271C81.8399 17.8793 82.7122 16.7546 83.4467 15.6528C84.2272 14.505 84.824 13.4032 85.2372 12.3473C85.6962 11.2455 85.9258 10.1667 85.9258 9.11075ZM112.438 59.3809C112.438 59.5187 112.346 59.6564 112.163 59.7941C111.979 59.9318 111.704 60.0007 111.336 60.0007C108.582 59.1284 105.873 57.9119 103.21 56.351C100.548 54.7441 97.9539 52.8848 95.4289 50.773C93.6844 52.1044 91.871 53.321 89.9887 54.4228C88.1065 55.5246 86.1783 56.4657 84.2042 57.2462C82.276 58.0266 80.3249 58.6234 78.3508 59.0366C76.4227 59.4498 74.5634 59.6564 72.7729 59.6564C71.0284 59.6564 69.3757 59.4039 67.8148 58.8989C66.2539 58.4398 64.8995 57.7282 63.7518 56.7641C62.6041 55.7541 61.7089 54.5146 61.0662 53.0455C60.3775 51.5764 60.0332 49.8549 60.0332 47.8808C60.0332 45.769 60.5152 43.7031 61.4793 41.6831C62.4434 39.6172 63.683 37.5972 65.1979 35.6231C66.7129 33.649 68.3886 31.7209 70.225 29.8386C72.1072 27.9563 73.9436 26.12 75.734 24.3295C74.4027 20.7486 73.737 17.5121 73.737 14.6198C73.737 12.9212 74.0354 11.3603 74.6322 9.93711C75.2749 8.51393 76.0783 7.29735 77.0424 6.28735C78.0065 5.27736 79.0624 4.49691 80.2101 3.946C81.4038 3.34919 82.5285 3.05078 83.5844 3.05078C84.824 3.05078 85.9487 3.46396 86.9587 4.29032C87.9687 5.07077 88.4737 6.37917 88.4737 8.21553C88.4737 9.36325 88.1753 10.5569 87.5785 11.7964C87.0276 13.036 86.2701 14.3214 85.306 15.6528C84.3878 16.9382 83.286 18.2925 82.0006 19.7157C80.761 21.093 79.4526 22.5161 78.0754 23.9852C79.5904 28.1629 81.8399 32.4095 84.824 36.7249C87.854 40.9944 91.5267 44.9885 95.8421 48.7071C98.1835 46.5953 100.066 44.2769 101.489 41.7519C102.912 39.227 103.624 36.5872 103.624 33.8327C103.624 32.9145 103.486 31.9963 103.21 31.0781C102.981 30.114 102.499 29.1041 101.764 28.0481C101.764 27.9563 101.902 27.8645 102.178 27.7727C102.453 27.635 102.705 27.5661 102.935 27.5661C103.578 27.5661 104.083 27.7956 104.45 28.2547C104.863 28.6679 105.162 29.1729 105.345 29.7697C105.575 30.3665 105.713 30.9863 105.758 31.629C105.85 32.2259 105.896 32.7079 105.896 33.0752C105.896 36.1051 105.047 39.0433 103.348 41.8897C101.695 44.6901 99.5378 47.261 96.8751 49.6024C101.328 53.4128 106.355 56.5116 111.956 58.8989C112.277 59.0825 112.438 59.2432 112.438 59.3809Z" fill="#FFA55C"/>
<path d="M26.614 50.8104C26.0126 50.8104 25.4921 50.4634 25.0526 49.7695C24.613 49.0986 24.3007 47.9998 24.1157 46.4731C24.0926 46.3574 24.081 46.2186 24.081 46.0567C24.081 45.8716 24.081 45.6866 24.081 45.5015C24.081 44.7381 24.1273 43.7781 24.2198 42.6215C24.3123 41.4417 24.428 40.1463 24.5668 38.7352C24.7056 37.3241 24.8328 35.8783 24.9485 34.3979C25.0873 32.8942 25.2029 31.4253 25.2954 29.9911C25.388 28.5569 25.4342 27.2499 25.4342 26.0701C25.4342 24.6128 25.3417 23.433 25.1567 22.5308C24.9716 21.6287 24.6362 21.1776 24.1504 21.1776C23.8497 21.1776 23.5489 21.3511 23.2482 21.6981C22.9706 22.0219 22.7162 22.3921 22.4848 22.8084C22.2766 23.2017 22.1032 23.5255 21.9644 23.78C21.8487 24.0113 21.7793 24.046 21.7562 23.8841C21.733 23.7916 21.7099 23.7106 21.6868 23.6412C21.6868 23.5487 21.6868 23.4561 21.6868 23.3636C21.6868 22.9241 21.7909 22.4614 21.9991 21.9757C22.2073 21.4899 22.4964 21.0851 22.8665 20.7612C23.2366 20.4142 23.653 20.2407 24.1157 20.2407C24.2082 20.2407 24.2892 20.2523 24.3586 20.2754C24.428 20.2754 24.4974 20.287 24.5668 20.3101C25.4689 20.5414 26.082 21.2817 26.4058 22.5308C26.7297 23.78 26.8916 25.2952 26.8916 27.0764C26.8916 28.4181 26.8222 29.8407 26.6834 31.3444C26.5677 32.848 26.4289 34.3632 26.267 35.8899C26.1282 37.3935 25.9894 38.8277 25.8506 40.1926C25.735 41.5574 25.6771 42.7603 25.6771 43.8012C25.6771 44.102 25.6771 44.3911 25.6771 44.6687C25.7003 44.9232 25.7234 45.1661 25.7465 45.3974C25.9316 46.8547 26.1861 47.8726 26.5099 48.4509C26.8338 49.0523 27.2039 49.3531 27.6203 49.3531C28.0829 49.3531 28.5571 49.0986 29.0429 48.5897C29.5518 48.0808 30.0492 47.4446 30.535 46.6813C31.0208 45.9179 31.4603 45.1545 31.8535 44.3911C32.3856 43.3964 32.8714 42.2282 33.3109 40.8865C33.7504 39.5449 34.1437 38.18 34.4906 36.7921C34.8608 35.4041 35.1499 34.1318 35.3581 32.9752C35.1268 32.582 34.988 32.1771 34.9417 31.7607C34.8955 31.3444 34.8723 30.8123 34.8723 30.1646C34.8723 29.4706 34.9996 28.927 35.254 28.5338C35.5085 28.1405 35.7745 27.9439 36.0521 27.9439C36.4685 27.9439 36.7461 28.2909 36.8849 28.9848C37.1393 30.1415 37.3938 31.3675 37.6482 32.6629C37.9027 33.9352 38.1803 35.1844 38.481 36.4104C38.8049 37.6364 39.175 38.7699 39.5914 39.8109C40.4473 41.8697 41.2338 43.3502 41.9509 44.2523C42.668 45.1314 43.3273 45.5709 43.9287 45.5709C44.5533 45.5709 45.0969 45.1776 45.5596 44.3911C46.0454 43.5815 46.4502 42.529 46.774 41.2335C47.0979 39.915 47.3408 38.4923 47.5027 36.9656C47.6646 35.4157 47.7456 33.9005 47.7456 32.42C47.7456 31.194 47.6878 30.0489 47.5721 28.9848C47.4796 27.9207 47.3061 27.0533 47.0516 26.3824C46.9591 26.1048 46.8897 25.8157 46.8434 25.5149C46.7972 25.2142 46.774 24.9366 46.774 24.6822C46.774 24.3583 46.8087 24.0807 46.8781 23.8494C46.9707 23.6181 47.0979 23.5024 47.2598 23.5024C47.4449 23.5024 47.63 23.6412 47.815 23.9188C48.0695 24.2427 48.3008 24.6937 48.509 25.2721C48.7403 25.8272 48.9369 26.313 49.0989 26.7294C49.2839 27.1921 49.5268 27.7588 49.8275 28.4297C50.1283 29.0774 50.4406 29.6788 50.7644 30.234C51.1114 30.766 51.4468 31.0899 51.7707 31.2056C51.8169 31.2287 51.8401 31.275 51.8401 31.3444C51.8401 31.4832 51.736 31.5988 51.5278 31.6913C51.3196 31.7839 51.1692 31.8186 51.0767 31.7954C50.5447 31.541 50.0936 31.275 49.7234 30.9974C49.3765 30.6966 48.9716 30.153 48.509 29.3665C48.5321 29.7829 48.5437 30.2109 48.5437 30.6504C48.5437 31.0668 48.5437 31.4832 48.5437 31.8995C48.5437 33.1024 48.4974 34.3053 48.4049 35.5082C48.3355 36.7111 48.1851 37.9256 47.9538 39.1516C47.4449 41.8118 46.7972 43.7087 46.0107 44.8422C45.2473 45.9757 44.4377 46.5425 43.5817 46.5425C42.8878 46.5425 42.1938 46.2417 41.4998 45.6403C40.829 45.0157 40.2044 44.1945 39.6261 43.1767C39.0478 42.1588 38.5504 41.0253 38.134 39.7762C37.7639 38.5733 37.4516 37.4745 37.1972 36.4798C36.9427 35.462 36.7461 34.5714 36.6073 33.808C36.2372 35.4735 35.7514 37.1275 35.1499 38.7699C34.5716 40.4123 33.9239 41.9622 33.2068 43.4196C32.4897 44.8538 31.7379 46.1261 30.9514 47.2364C30.188 48.3468 29.4246 49.2143 28.6612 49.8388C27.921 50.4866 27.2386 50.8104 26.614 50.8104Z" fill="#1F1711"/>
<path d="M51.5169 46.5772C51.1006 46.5772 50.7998 46.4037 50.6148 46.0567C50.4297 45.6866 50.3372 45.2586 50.3372 44.7728C50.3372 44.1482 50.4413 43.4196 50.6495 42.5868C50.8808 41.754 51.1815 40.8981 51.5516 40.0191C51.9218 39.1169 52.3381 38.2957 52.8008 37.5555C53.2866 36.7921 53.7955 36.1791 54.3275 35.7164C54.8596 35.2306 55.3801 34.9877 55.889 34.9877C56.3516 34.9877 56.7449 35.1959 57.0688 35.6123C57.4157 36.0056 57.5892 36.4567 57.5892 36.9656C57.5892 37.2663 57.543 37.5208 57.4504 37.7289C57.3579 37.914 57.2538 38.0065 57.1382 38.0065C57.0456 38.0065 56.9647 37.9371 56.8953 37.7983C56.6639 37.2663 56.4095 36.8846 56.1319 36.6533C55.8774 36.422 55.6114 36.3063 55.3338 36.3063C54.8712 36.3063 54.4085 36.5723 53.9459 37.1044C53.5063 37.6133 53.1478 38.2032 52.8702 38.874C52.6389 39.3829 52.4191 39.9959 52.2109 40.7131C52.0259 41.407 51.8639 42.101 51.7251 42.795C51.6095 43.4658 51.5516 44.021 51.5516 44.4605C51.5516 45.247 51.7367 45.6403 52.1068 45.6403C52.5695 45.6403 53.1594 45.1314 53.8765 44.1135C54.4085 43.3733 54.8827 42.5174 55.2991 41.5458C55.7386 40.5743 56.1088 39.7299 56.4095 39.0128C56.5251 38.7815 56.6524 38.6311 56.7912 38.5617C56.93 38.4923 57.0572 38.4576 57.1729 38.4576C57.4504 38.4576 57.6239 38.5733 57.6933 38.8046C57.7859 39.0359 57.8321 39.2326 57.8321 39.3945C57.8321 39.9959 57.7743 40.5396 57.6586 41.0253C57.543 41.488 57.4851 42.0547 57.4851 42.7256C57.4851 43.2114 57.5198 43.6625 57.5892 44.0788C57.6818 44.4721 57.8321 44.6687 58.0403 44.6687C58.2948 44.6687 58.6186 44.3449 59.0119 43.6972C59.1044 43.5121 59.2432 43.4196 59.4283 43.4196C59.6365 43.4196 59.7406 43.5237 59.7406 43.7319C59.7406 44.0326 59.5324 44.3564 59.116 44.7034C58.6996 45.0273 58.2832 45.1892 57.8668 45.1892C57.3117 45.1892 56.9184 44.9579 56.6871 44.4952C56.2938 43.7319 56.0972 43.0494 56.0972 42.448C56.0972 41.8234 56.0856 41.3955 56.0625 41.1641C55.9468 41.4417 55.7271 41.8812 55.4032 42.4827C55.0794 43.061 54.6977 43.674 54.2582 44.3217C53.8186 44.9463 53.356 45.4784 52.8702 45.9179C52.3844 46.3574 51.9333 46.5772 51.5169 46.5772Z" fill="#1F1711"/>
<path d="M57.8216 51.8861C57.5902 51.8861 57.4052 51.8167 57.2664 51.6779C57.1045 51.5391 57.0813 51.3772 57.197 51.1921C57.5208 50.7063 57.8331 50.0123 58.1339 49.1102C58.4114 48.2311 58.6543 47.3058 58.8625 46.3343C59.0939 45.3627 59.2789 44.4837 59.4177 43.6972C59.5796 42.8875 59.6953 42.3208 59.7647 41.9969C59.3483 41.6037 59.1401 41.1641 59.1401 40.6784C59.1401 40.3082 59.2211 39.9959 59.383 39.7415C59.5681 39.487 59.7069 39.3714 59.7994 39.3945C59.8457 39.3945 59.9035 39.4176 59.9729 39.4639C60.0654 39.487 60.1117 39.5217 60.1117 39.568C60.2505 38.4808 60.3661 37.4051 60.4587 36.341C60.5512 35.2538 60.5975 34.2591 60.5975 33.3569C60.5975 32.6166 60.5628 31.9574 60.4934 31.3791C60.424 30.8007 60.3199 30.3381 60.1811 29.9911C60.0423 29.6441 59.9729 29.3781 59.9729 29.193C59.9729 28.9386 60.0423 28.8113 60.1811 28.8113C60.343 28.8113 60.4702 28.9154 60.5628 29.1236C60.8172 29.6325 61.0023 30.4306 61.118 31.5179C61.2567 32.6051 61.3261 33.8427 61.3261 35.2306C61.3261 36.1791 61.303 37.1853 61.2568 38.2494C61.2105 39.2904 61.1295 40.3314 61.0139 41.3723C61.4302 41.0022 61.8582 40.6437 62.2977 40.2967C62.7372 39.9265 63.1189 39.5449 63.4428 39.1516V39.1169C63.4428 39.0706 63.4196 39.0244 63.3734 38.9781C63.3502 38.9318 63.3387 38.8624 63.3387 38.7699C63.3387 38.608 63.4543 38.4114 63.6857 38.18C63.917 37.9487 64.2177 37.6249 64.5878 37.2085C64.9811 36.7689 65.3859 36.3757 65.8023 36.0287C66.2187 35.6586 66.6004 35.4851 66.9474 35.5082C67.225 35.5082 67.3637 35.6008 67.3637 35.7858C67.3637 35.994 67.1671 36.3063 66.7739 36.7227C66.3806 37.1391 65.9064 37.5786 65.3512 38.0412C64.8192 38.5039 64.3218 38.9318 63.8592 39.3251C63.4196 39.6952 63.1305 39.9497 62.9917 40.0885L61.6731 41.5458L60.9792 42.2745C61.2799 43.0379 61.6269 43.7897 62.0201 44.5299C62.4134 45.2702 62.8529 45.8832 63.3387 46.369C63.8476 46.8547 64.3681 47.0976 64.9001 47.0976C65.4553 47.0976 66.0221 46.7622 66.6004 46.0914C66.9936 45.6056 67.3291 45.062 67.6066 44.4605C67.8842 43.8591 68.1156 43.408 68.3006 43.1073C68.4163 42.8759 68.5319 42.7256 68.6476 42.6562C68.7633 42.5637 68.8558 42.5174 68.9252 42.5174C69.0871 42.5174 69.145 42.6331 69.0987 42.8644C69.0062 43.1651 68.8442 43.5468 68.6129 44.0094C68.3816 44.4721 68.1503 44.9116 67.9189 45.328C67.7107 45.7213 67.5488 45.9988 67.4331 46.1608C66.9936 46.8085 66.5541 47.2827 66.1146 47.5834C65.6751 47.8841 65.2471 48.0345 64.8307 48.0345C64.2987 48.0345 63.7782 47.8379 63.2693 47.4446C62.7604 47.0514 62.2861 46.5425 61.8466 45.9179C61.4302 45.2933 61.0486 44.634 60.7016 43.94C60.4471 45.6981 60.1348 47.2711 59.7647 48.6591C59.3946 50.0702 58.9898 51.0417 58.5502 51.5738C58.342 51.782 58.0992 51.8861 57.8216 51.8861Z" fill="#1F1711"/>
<path d="M71.4856 47.3058C70.6528 47.3058 69.9241 46.82 69.2996 45.8485C68.6981 44.8538 68.3974 43.2923 68.3974 41.1641C68.3974 39.7762 68.5709 38.6658 68.9179 37.833C69.2649 36.9771 69.6928 36.3526 70.2017 35.9593C70.7107 35.5661 71.1964 35.3694 71.6591 35.3694C72.1217 35.3694 72.515 35.5314 72.8389 35.8552C73.1627 36.1559 73.3246 36.5955 73.3246 37.1738C73.3246 37.7289 73.1627 38.3188 72.8389 38.9434C72.515 39.5449 72.1217 40.1 71.6591 40.609C71.2196 41.0947 70.7801 41.4186 70.3405 41.5805C70.248 41.6268 70.1323 41.6499 69.9935 41.6499C69.901 41.6499 69.8547 41.6152 69.8547 41.5458C69.8547 41.3608 70.0398 41.1526 70.4099 40.9212C70.8726 40.5974 71.3121 40.1116 71.7285 39.4639C72.1449 38.793 72.3531 38.2032 72.3531 37.6942C72.3531 37.3935 72.2837 37.1622 72.1449 37.0003C72.0061 36.8152 71.8441 36.7227 71.6591 36.7227C71.3121 36.7227 70.9304 37.0003 70.514 37.5555C70.1208 38.0875 69.8316 39.0128 69.6466 40.3314C69.6003 40.7015 69.554 41.06 69.5078 41.407C69.4846 41.7309 69.4731 42.0547 69.4731 42.3786C69.4731 43.674 69.6697 44.6919 70.0629 45.4321C70.4562 46.1492 70.9767 46.5078 71.6244 46.5078C72.1796 46.5078 72.8041 46.1839 73.4981 45.5362C74.1921 44.8653 74.8745 43.8244 75.5454 42.4133C75.7073 42.0432 75.8923 41.8581 76.1005 41.8581C76.2393 41.8581 76.3087 41.9506 76.3087 42.1357C76.3087 42.2976 76.2625 42.4711 76.1699 42.6562C75.5685 44.1367 74.8398 45.2817 73.9839 46.0914C73.128 46.901 72.2952 47.3058 71.4856 47.3058Z" fill="#1F1711"/>
<path d="M94.1355 59.8668C93.0714 59.8668 92.042 59.4273 91.0473 58.5483C90.0758 57.6692 89.2546 56.3969 88.5837 54.7314C87.936 53.0658 87.5543 51.0533 87.4387 48.6938C86.7216 48.7632 86.0623 48.7979 85.4608 48.7979C84.1191 48.7979 83.136 48.6244 82.5114 48.2774C81.91 47.9304 81.6093 47.4793 81.6093 46.9241C81.6093 46.369 81.8753 45.7559 82.4073 45.0851C82.9394 44.4143 83.6796 43.7434 84.6281 43.0726C85.5765 42.3786 86.6869 41.754 87.9591 41.1988C88.3987 38.8393 89.1042 36.2947 90.0758 33.5651C91.0705 30.8123 92.4006 27.8976 94.0661 24.821C94.2281 24.5202 94.471 24.3699 94.7948 24.3699C95.003 24.3699 95.1881 24.4393 95.35 24.5781C95.5119 24.7169 95.5929 24.9019 95.5929 25.1333C95.5929 25.2489 95.5582 25.3993 95.4888 25.5843C94.0083 28.5684 92.7707 31.3097 91.776 33.808C90.8045 36.2832 90.0411 38.5502 89.4859 40.609C90.5269 40.2157 91.6372 39.8918 92.817 39.6374C93.9967 39.3829 95.1996 39.2326 96.4257 39.1863C96.7495 39.1863 96.9115 39.2326 96.9115 39.3251C96.9115 39.4176 96.7958 39.5102 96.5645 39.6027C96.3563 39.6721 95.9977 39.7183 95.4888 39.7415C94.3553 39.8109 93.2681 39.9728 92.2271 40.2273C91.2093 40.4586 90.2493 40.7477 89.3471 41.0947C89.0001 42.4364 88.7341 43.6856 88.549 44.8422C88.364 45.9757 88.2483 47.0282 88.202 47.9998C90.5847 47.4909 92.7476 46.7506 94.6907 45.7791C96.657 44.7844 98.3919 43.6393 99.8956 42.3439C101.399 41.0485 102.66 39.7068 103.678 38.3188C104.325 37.4398 104.788 36.6648 105.066 35.994C105.366 35.3 105.517 34.6986 105.517 34.1897C105.517 33.4494 105.285 32.8711 104.823 32.4547C104.36 32.0152 103.747 31.7029 102.984 31.5179C102.22 31.3097 101.388 31.2056 100.485 31.2056C99.537 31.2056 98.577 31.2981 97.6054 31.4832C96.6339 31.6451 95.7548 31.8764 94.9683 32.1771C94.7833 32.2234 94.656 32.2465 94.5866 32.2465C94.2859 32.2465 94.1355 32.1424 94.1355 31.9342C94.1355 31.726 94.2628 31.5641 94.5172 31.4485C97.3625 29.8292 99.3866 28.3603 100.59 27.0417C101.792 25.7231 102.394 24.6128 102.394 23.7106C102.394 22.9241 102.024 22.3227 101.284 21.9063C100.566 21.4667 99.618 21.247 98.4382 21.247C97.5129 21.247 96.4719 21.3974 95.3153 21.6981C94.1587 21.9988 92.9673 22.4846 91.7413 23.1554C90.7235 23.7106 89.7982 24.3699 88.9654 25.1333C88.1558 25.8735 87.4618 26.6484 86.8835 27.4581C86.3283 28.2446 85.9119 28.9964 85.6343 29.7135C85.3567 30.4075 85.2526 30.9974 85.322 31.4832C85.322 31.5294 85.322 31.5872 85.322 31.6566C85.3452 31.7029 85.3567 31.7492 85.3567 31.7954C85.3567 32.3738 85.1832 32.6629 84.8363 32.6629C84.6743 32.6629 84.5008 32.5473 84.3158 32.3159C84.1538 32.0846 84.0729 31.7376 84.0729 31.275C84.0729 30.581 84.2811 29.8407 84.6975 29.0542C85.137 28.2677 85.7153 27.4812 86.4324 26.6947C87.1726 25.8851 87.9938 25.1333 88.896 24.4393C89.7982 23.7222 90.7351 23.1092 91.7066 22.6002C92.9558 21.9294 94.1818 21.432 95.3847 21.1082C96.6107 20.7843 97.7327 20.6224 98.7505 20.6224C100.162 20.6224 101.307 20.9 102.186 21.4552C103.065 22.0104 103.504 22.7853 103.504 23.78C103.504 24.7053 103.053 25.781 102.151 27.007C101.249 28.233 99.7336 29.5863 97.6054 31.0668C98.3225 30.9511 98.9934 30.8701 99.618 30.8239C100.243 30.7545 100.821 30.7198 101.353 30.7198C103.342 30.7198 104.777 31.0552 105.656 31.726C106.558 32.3738 107.009 33.2181 107.009 34.2591C107.009 35.0224 106.789 35.8552 106.35 36.7574C105.933 37.6364 105.343 38.5502 104.58 39.4986C103.47 40.8634 102.07 42.182 100.381 43.4543C98.7158 44.7266 96.8421 45.8253 94.7601 46.7507C92.7013 47.676 90.5037 48.3005 88.1673 48.6244C88.1211 50.6832 88.3061 52.3834 88.7225 53.7251C89.162 55.0668 89.7172 56.1078 90.3881 56.848C91.0589 57.6114 91.7298 58.1434 92.4006 58.4442C93.0714 58.768 93.6266 58.9299 94.0661 58.9299C94.39 58.9299 94.6098 58.8721 94.7254 58.7565C94.818 58.6408 94.9568 58.583 95.1418 58.583C95.3269 58.583 95.5004 58.6524 95.6623 58.7912C95.8242 58.93 95.9052 59.0803 95.9052 59.2422C95.9052 59.381 95.8242 59.4851 95.6623 59.5545C95.1534 59.7627 94.6445 59.8668 94.1355 59.8668ZM85.5996 48.3468C85.8541 48.3468 86.1317 48.3237 86.4324 48.2774C86.7331 48.2543 87.057 48.2196 87.404 48.1733C87.3808 47.2017 87.404 46.1839 87.4734 45.1198C87.5428 44.0557 87.67 42.9453 87.855 41.7887C86.3746 42.5521 85.2064 43.408 84.3505 44.3564C83.4946 45.2817 83.0666 46.1029 83.0666 46.82C83.0666 47.2596 83.2748 47.6181 83.6912 47.8957C84.1076 48.1964 84.7437 48.3468 85.5996 48.3468Z" fill="#1F1711"/>
<path d="M108.614 46.5772C108.198 46.5772 107.897 46.4037 107.712 46.0567C107.527 45.6866 107.434 45.2586 107.434 44.7728C107.434 44.1482 107.539 43.4196 107.747 42.5868C107.978 41.754 108.279 40.8981 108.649 40.0191C109.019 39.1169 109.435 38.2957 109.898 37.5555C110.384 36.7921 110.893 36.1791 111.425 35.7164C111.957 35.2306 112.477 34.9877 112.986 34.9877C113.449 34.9877 113.842 35.1959 114.166 35.6123C114.513 36.0056 114.686 36.4567 114.686 36.9656C114.686 37.2663 114.64 37.5208 114.548 37.7289C114.455 37.914 114.351 38.0065 114.235 38.0065C114.143 38.0065 114.062 37.9371 113.993 37.7983C113.761 37.2663 113.507 36.8846 113.229 36.6533C112.975 36.422 112.709 36.3063 112.431 36.3063C111.968 36.3063 111.506 36.5723 111.043 37.1044C110.604 37.6133 110.245 38.2032 109.967 38.874C109.736 39.3829 109.516 39.9959 109.308 40.7131C109.123 41.407 108.961 42.101 108.822 42.795C108.707 43.4658 108.649 44.021 108.649 44.4605C108.649 45.247 108.834 45.6403 109.204 45.6403C109.667 45.6403 110.257 45.1314 110.974 44.1135C111.506 43.3733 111.98 42.5174 112.396 41.5458C112.836 40.5743 113.206 39.7299 113.507 39.0128C113.622 38.7815 113.75 38.6311 113.888 38.5617C114.027 38.4923 114.154 38.4576 114.27 38.4576C114.548 38.4576 114.721 38.5733 114.791 38.8046C114.883 39.0359 114.929 39.2326 114.929 39.3945C114.929 39.9959 114.872 40.5396 114.756 41.0253C114.64 41.488 114.582 42.0547 114.582 42.7256C114.582 43.2114 114.617 43.6625 114.686 44.0788C114.779 44.4721 114.929 44.6687 115.138 44.6687C115.392 44.6687 115.716 44.3449 116.109 43.6972C116.202 43.5121 116.34 43.4196 116.526 43.4196C116.734 43.4196 116.838 43.5237 116.838 43.7319C116.838 44.0326 116.63 44.3564 116.213 44.7034C115.797 45.0273 115.38 45.1892 114.964 45.1892C114.409 45.1892 114.016 44.9579 113.784 44.4952C113.391 43.7319 113.194 43.0494 113.194 42.448C113.194 41.8234 113.183 41.3955 113.16 41.1641C113.044 41.4417 112.824 41.8812 112.5 42.4827C112.177 43.061 111.795 43.674 111.355 44.3217C110.916 44.9463 110.453 45.4784 109.967 45.9179C109.482 46.3574 109.031 46.5772 108.614 46.5772Z" fill="#1F1711"/>
<path d="M114.919 51.8861C114.687 51.8861 114.502 51.8167 114.364 51.6779C114.202 51.5391 114.179 51.3772 114.294 51.1921C114.618 50.7063 114.93 50.0123 115.231 49.1102C115.509 48.2311 115.752 47.3058 115.96 46.3343C116.191 45.3627 116.376 44.4837 116.515 43.6972C116.677 42.8875 116.793 42.3208 116.862 41.9969C116.446 41.6037 116.237 41.1641 116.237 40.6784C116.237 40.3082 116.318 39.9959 116.48 39.7415C116.665 39.487 116.804 39.3714 116.897 39.3945C116.943 39.3945 117.001 39.4176 117.07 39.4639C117.163 39.487 117.209 39.5217 117.209 39.568C117.348 38.4808 117.463 37.4051 117.556 36.341C117.648 35.2538 117.695 34.2591 117.695 33.3569C117.695 32.6166 117.66 31.9574 117.591 31.3791C117.521 30.8007 117.417 30.3381 117.278 29.9911C117.14 29.6441 117.07 29.3781 117.07 29.193C117.07 28.9386 117.14 28.8113 117.278 28.8113C117.44 28.8113 117.567 28.9154 117.66 29.1236C117.914 29.6325 118.1 30.4306 118.215 31.5179C118.354 32.6051 118.423 33.8427 118.423 35.2306C118.423 36.1791 118.4 37.1853 118.354 38.2494C118.308 39.2904 118.227 40.3314 118.111 41.3723C118.527 41.0022 118.955 40.6437 119.395 40.2967C119.834 39.9265 120.216 39.5449 120.54 39.1516V39.1169C120.54 39.0706 120.517 39.0244 120.471 38.9781C120.447 38.9318 120.436 38.8624 120.436 38.7699C120.436 38.608 120.552 38.4114 120.783 38.18C121.014 37.9487 121.315 37.6249 121.685 37.2085C122.078 36.7689 122.483 36.3757 122.9 36.0287C123.316 35.6586 123.698 35.4851 124.045 35.5082C124.322 35.5082 124.461 35.6008 124.461 35.7858C124.461 35.994 124.264 36.3063 123.871 36.7227C123.478 37.1391 123.004 37.5786 122.448 38.0412C121.916 38.5039 121.419 38.9318 120.956 39.3251C120.517 39.6952 120.228 39.9497 120.089 40.0885L118.77 41.5458L118.076 42.2745C118.377 43.0379 118.724 43.7897 119.117 44.5299C119.511 45.2702 119.95 45.8832 120.436 46.369C120.945 46.8547 121.465 47.0976 121.997 47.0976C122.553 47.0976 123.119 46.7622 123.698 46.0914C124.091 45.6056 124.426 45.062 124.704 44.4605C124.981 43.8591 125.213 43.408 125.398 43.1073C125.514 42.8759 125.629 42.7256 125.745 42.6562C125.861 42.5637 125.953 42.5174 126.022 42.5174C126.184 42.5174 126.242 42.6331 126.196 42.8644C126.103 43.1651 125.941 43.5468 125.71 44.0094C125.479 44.4721 125.247 44.9116 125.016 45.328C124.808 45.7213 124.646 45.9988 124.53 46.1608C124.091 46.8085 123.651 47.2827 123.212 47.5834C122.772 47.8841 122.344 48.0345 121.928 48.0345C121.396 48.0345 120.875 47.8379 120.367 47.4446C119.858 47.0514 119.383 46.5425 118.944 45.9179C118.527 45.2933 118.146 44.634 117.799 43.94C117.544 45.6981 117.232 47.2711 116.862 48.6591C116.492 50.0702 116.087 51.0417 115.647 51.5738C115.439 51.782 115.196 51.8861 114.919 51.8861Z" fill="#1F1711"/>
<path d="M128.583 47.3058C127.75 47.3058 127.021 46.82 126.397 45.8485C125.795 44.8538 125.495 43.2923 125.495 41.1641C125.495 39.7762 125.668 38.6658 126.015 37.833C126.362 36.9771 126.79 36.3526 127.299 35.9593C127.808 35.5661 128.294 35.3694 128.756 35.3694C129.219 35.3694 129.612 35.5314 129.936 35.8552C130.26 36.1559 130.422 36.5955 130.422 37.1738C130.422 37.7289 130.26 38.3188 129.936 38.9434C129.612 39.5449 129.219 40.1 128.756 40.609C128.317 41.0947 127.877 41.4186 127.438 41.5805C127.345 41.6268 127.23 41.6499 127.091 41.6499C126.998 41.6499 126.952 41.6152 126.952 41.5458C126.952 41.3608 127.137 41.1526 127.507 40.9212C127.97 40.5974 128.409 40.1116 128.826 39.4639C129.242 38.793 129.45 38.2032 129.45 37.6942C129.45 37.3935 129.381 37.1622 129.242 37.0003C129.103 36.8152 128.941 36.7227 128.756 36.7227C128.409 36.7227 128.028 37.0003 127.611 37.5555C127.218 38.0875 126.929 39.0128 126.744 40.3314C126.698 40.7015 126.651 41.06 126.605 41.407C126.582 41.7309 126.57 42.0547 126.57 42.3786C126.57 43.674 126.767 44.6919 127.16 45.4321C127.553 46.1492 128.074 46.5078 128.722 46.5078C129.277 46.5078 129.901 46.1839 130.595 45.5362C131.289 44.8653 131.972 43.8244 132.643 42.4133C132.805 42.0432 132.99 41.8581 133.198 41.8581C133.337 41.8581 133.406 41.9506 133.406 42.1357C133.406 42.2976 133.36 42.4711 133.267 42.6562C132.666 44.1367 131.937 45.2817 131.081 46.0914C130.225 46.901 129.392 47.3058 128.583 47.3058Z" fill="#1F1711"/>
</svg>
